#!OML:ASF F:\VICON\USERDATA\INSTALL\rory3\rory3.ASF
:FULLY-SPECIFIED
:DEGREES
10
root -0.6959256260927386 18.924880774032044 -22.66328696703968 4.062749213423366 3.9039221491832232 -5.545609723008475
lfemur -34.707990889762 -1.7892569463834251 -16.92950606248797
ltibia 44.278303319126614
lfoot 1.1932790233413915 -3.479125891594648
ltoes -24.88098564360255
rfemur 11.850986265127538 6.352458178137809 33.184493138724946
rtibia 32.875410455920374
rfoot 27.640884530575626 -6.2194999519886505
rtoes 18.253090075915978
lowerback 12.142918577828699 2.330860809341818 5.4630896678392435
upperback -2.5488246162760326 4.153200274705974 1.9357693607390194
thorax -9.338186124743531 1.758620433339511 -1.817851371973068
lowerneck -15.696828117682864 -5.273037611918955 -2.0343900643662876
upperneck 16.62108222418361 -7.067168538205819 1.7022891258748691
head 7.8519566627741035 -3.3208266963450748 0.09258240838571208
lclavicle -1.7288341312233659e-15 1.783627650497341e-15
lhumerus -72.63078536882053 -2.3046489241900705 95.52940710051867
lradius 102.91200569734151
lwrist 34.7211962863061
lhand -23.848906516485002 0.4356371774727563
lfingers 7.12502
lthumb 2.6232634832147115 30.399205207588857
rclavicle -1.7288341312233659e-15 1.783627650497341e-15
rhumerus -43.876906578615966 16.965585396464093 -96.73280022559344
rradius 117.99398520688159
rwrist -9.070933885661667
rhand -16.082702869383375 46.09455986224066
rfingers 7.12502
rthumb 10.120297129617565 16.357958956908384
11
root -0.6770431180759771 18.973579983408978 -21.632287387837394 3.7213109782535896 4.537090497698839 -5.7691789472917
lfemur -32.93109170569565 -3.406733219557175 -16.515806697772906
ltibia 35.177006923262425
lfoot 2.9542378035352805 -5.580852403138135
ltoes -23.80458672225128
rfemur 12.2750860822341 7.27509618225805 34.17469142516394
rtibia 36.67100914696037
rfoot 26.70978517662281 -5.843040511867888
rtoes 21.893787677590723
lowerback 12.624815928137483 2.236191394044676 5.8629686485062695
upperback -2.492375219511475 4.119070401731765 1.8810097718257335
thorax -9.529263477351348 1.7107908716421285 -2.116510412178212
lowerneck -17.634516811481728 -5.398866678551698 -1.76675449838742
upperneck 17.565176340952828 -7.285407437150312 1.605520012130394
head 8.49898089629456 -3.3827160104697973 -0.07674451938546767
lclavicle -1.7288339767200554e-15 1.7836276955249437e-15
lhumerus -73.03168510033713 -2.1692691406785514 95.30270786805409
lradius 103.10400549090426
lwrist 34.14739810477481
lhand -24.527402786342112 0.9723433951888196
lfingers 7.12502
lthumb 1.9680172133426612 30.943003395672342
rclavicle -1.7288339767200554e-15 1.7836276955249437e-15
rhumerus -43.9070065499347 18.024683569686758 -97.35869863219246
rradius 118.12298498747035
rwrist -8.636705467004063
rhand -19.122987495367035 40.885993068918
rfingers 7.12502
rthumb 7.1864625038112155 11.027993611370825
12
root -0.6602105566479122 19.001579528841297 -20.58378781577771 3.5054020942461324 4.518610545899845 -6.280727172375921
lfemur -31.11859253797636 -4.765290089306978 -15.715707926420421
ltibia 27.690609887894176
lfoot 3.8395471902865204 -6.1372414796406725
ltoes -22.704487824649597
rfemur 11.934986228902392 8.299043967221765 35.27768951640029
rtibia 41.73750739971473
rfoot 25.532985993149957 -6.532859485953061
rtoes 21.25718809695344
lowerback 12.501016608842555 2.2644212196899565 6.214607752141731
upperback -2.463585527166893 4.218600031298789 2.0634784020121333
thorax -9.410285125806036 1.749910513155858 -2.12835037412835
lowerneck -17.78701592166614 -5.5383456439330345 -1.8250135331876325
upperneck 17.25267828832029 -7.449426609643327 1.6077199919819767
head 8.424962699946287 -3.466305084111507 -0.08673197329381921
lclavicle -1.7288340233481781e-15 1.7836277300995974e-15
lhumerus -73.39038486011518 -1.881579600728493 95.57200695628838
lradius 103.34400523285771
lwrist 33.890198919884874
lhand -23.89160628173614 0.9117195965071916
lfingers 7.12502
lthumb 2.5820237179807943 30.875803619579642
rclavicle -1.7288340233481781e-15 1.7836277300995974e-15
rhumerus -44.68380580974896 19.05668178965258 -98.23769639445567
rradius 117.97398524089883
rwrist -7.98810782902115
rhand -18.666189805287328 41.658588143318234
rfingers 7.12502
rthumb 7.627390193214829 11.816088487321696
13
root -0.6536317280591142 18.967480082439792 -19.544388240003933 3.195473696207917 4.6184702854370405 -5.999588147842297
lfemur -29.694593191862047 -5.821847654893245 -16.008207477252313
ltibia 22.899211785299542
lfoot 4.568336685458204 -5.878371909313726
ltoes -17.214593326018736
rfemur 11.024186621685516 8.424613695585364 35.28108951051651
rtibia 48.19800517173077
rfoot 24.216786906400237 -8.046627234642454
rtoes 21.311688061051328
lowerback 12.300317712376536 2.2566812674939065 5.516099532711606
upperback -2.648473551397165 4.103030461429802 2.1650376395949182
thorax -9.558403073619884 1.7303006928571816 -1.6030020624301886
lowerneck -15.779727633973275 -5.464906188687799 -1.9001622881693692
upperneck 15.830587150244355 -7.34047715931341 1.7187189754028411
head 7.605152676814683 -3.4499552653049284 0.055144730853031065
lclavicle -1.7288340775281454e-15 1.783627680247566e-15
lhumerus -74.09008439152493 -2.044289340536176 96.39850415801746
lradius 103.50600505867628
lwrist 33.88979892115255
lhand -23.819606677565602 0.596349643781813
lfingers 7.12502
lthumb 2.651553322168825 30.55960467314345
rclavicle -1.7288340775281454e-15 1.783627680247566e-15
rhumerus -46.37820419521404 19.389381215798544 -99.13909409969348
rradius 117.32298634816007
rwrist -7.597429251766817
rhand -18.219792062617493 41.62078838430668
rfingers 7.12502
rthumb 8.058177935754872 11.794388628410225
14
root -0.6510977940806975 18.891581314642885 -18.508388662842457 2.7619359370833134 4.124931572727358 -5.614439484190279
lfemur -28.23349386278364 -5.310788832423611 -16.861606166756392
ltibia 20.675512665889904
lfoot 4.946946423197395 -6.621470675914553
ltoes -15.34659519792126
rfemur 9.11704744414073 8.560533401559539 34.78209037404605
rtibia 55.911102511772114
rfoot 23.899787126351903 -10.273293923091938
rtoes 19.08598952723987
lowerback 12.149118543738464 2.5221996275836576 4.990360872873964
upperback -1.7066836156511864 4.28020980199732 1.8606999242941622
thorax -8.437058609938173 1.8823792992326451 -1.6369919531975268
lowerneck -18.326012776678578 -5.508675864015741 -1.5313683981192785
upperneck 15.660088212728036 -7.528676209814471 2.1269752364064693
head 7.995063175600377 -3.4478752883558337 0.03950131630799636
lclavicle -1.72883403526503e-15 1.783627755025596e-15
lhumerus -71.94048583111548 -3.5643369097982696 96.97170221734125
lradius 103.44000512963909
lwrist 34.04179843943898
lhand -24.335103843536622 0.6261835447099542
lfingers 7.12502
lthumb 2.153706156269087 30.59510455485909
rclavicle -1.72883403526503e-15 1.783627755025596e-15
rhumerus -45.29090523126446 19.03328183001382 -99.40459342379005
rradius 116.0149885728878
rwrist -7.463129740849292
rhand -18.222492048964284 41.5779886571719
rfingers 7.12502
rthumb 8.055637949065185 11.75148890733638
